<?xml version="1.0" encoding="UTF-8"?>

<svg width="1791" height="1791" viewBox="0 0 1791 1791" xmlns="http://www.w3.org/2000/svg">
    <g id="Group-copy">
        <path id="Path" fill="#666666" stroke="none" d="M 1789.570435 895.686157 C 1789.570435 1389.485962 1389.267334 1789.790161 895.466431 1789.790161 C 401.667603 1789.790161 1.362427 1389.485962 1.362427 895.686157 C 1.362427 401.885986 401.667603 1.582031 895.466431 1.582031 C 1389.267334 1.582031 1789.570435 401.885986 1789.570435 895.686157 Z"></path>
        <g id="Group">
            <path id="path1" fill="#231f20" stroke="none" d="M 1554.255493 909.215332 C 1538.58374 879.41748 1522.407349 849.299194 1506.761963 820.174927 L 1493.798096 796.026611 C 1491.403564 791.563232 1488.976318 787.12085 1486.549194 782.68103 C 1482.620605 775.496948 1478.69397 768.317749 1474.946411 761.089355 C 1468.602783 748.819824 1467.280396 736.014648 1470.804199 720.70166 C 1474.167236 705.847168 1475.554688 689.619507 1474.820313 673.747559 C 1473.280151 641.294678 1465.852173 607.622803 1451.51709 568.292603 C 1456.709106 542.319336 1468.806274 457.019775 1422.435791 385.765015 C 1410.493286 367.422729 1395.472534 351.312012 1377.780518 337.863525 L 1377.607544 337.692749 L 1376.303467 336.726563 C 1362.615234 326.55542 1347.226318 317.808838 1330.55957 310.723022 C 1321.910889 306.835205 1312.796387 303.221069 1303.089722 299.852417 L 1302.798828 299.76355 C 1290.894897 295.405518 1281.143555 292.500122 1273.046143 290.895264 C 1234.177002 280.976807 1190.068848 275.949707 1141.928467 275.949707 C 1024.102051 275.949707 957.168945 322.803223 921.768555 362.10791 C 910.914429 374.15979 902.288086 386.258667 895.480713 397.482544 C 888.669189 386.256348 880.038818 374.157471 869.176514 362.103149 C 833.768066 322.800903 766.824707 275.949707 648.996277 275.949707 C 600.853821 275.949707 556.739624 280.979126 517.870422 290.900024 C 509.683533 292.528076 499.875183 295.456909 487.930603 299.83606 L 487.527771 299.97168 C 478.344055 303.146118 469.227417 306.762695 460.424133 310.718506 C 444.392212 317.516357 429.485413 325.90979 416.092224 335.678589 L 415.957947 335.74646 L 414.228638 337.044678 C 396.02594 350.720215 380.638977 367.111694 368.482788 385.776733 C 322.161194 457.029053 334.231873 542.324097 339.413757 568.28772 C 325.127502 607.491821 317.699524 641.156616 316.106506 673.775513 C 315.367981 689.701416 316.777893 705.954834 320.177551 720.736694 C 323.656555 736.00293 322.330017 748.838623 316.073914 761.00061 C 312.609192 767.630005 309.024353 774.19873 305.437561 780.769897 C 302.654358 785.867065 299.873169 790.966797 297.187622 796.007813 L 288.042542 813.01001 C 271.113403 844.475586 253.608521 877.015015 236.667206 909.224731 C 229.027649 923.765625 224.454071 945.855469 246.103241 968.579468 C 263.726135 986.928589 286.062927 989.878662 302.424438 992.018921 C 299.456116 997.357178 296.990295 1003.327026 294.734009 1010.620972 C 287.859436 1032.788086 295.364685 1052.152588 313.919373 1062.272461 C 312.837036 1064.220947 312.03949 1066.052734 311.457642 1067.648193 C 308.464905 1075.835449 305.779358 1092.404785 321.402283 1111.423096 L 321.790894 1111.893311 C 324.00238 1114.585938 327.190491 1118.468994 331.886108 1121.863281 C 328.112122 1131.487305 324.852844 1141.153076 322.177429 1150.674072 C 316.246887 1172.029419 319.040222 1193.492432 330.040833 1211.107178 C 341.324158 1229.175903 360.013123 1241.442871 382.708069 1245.656128 C 396.473511 1248.182495 410.763855 1249.410645 426.394958 1249.410645 C 446.595581 1249.410645 466.743286 1247.295898 485.544128 1245.008057 C 507.940002 1242.247803 530.984802 1240.217163 553.268738 1238.256836 L 561.707886 1237.510742 C 577.436646 1277.325195 583.68866 1320.990234 580.813904 1370.938965 C 579.16394 1400.222046 569.992371 1424.980957 552.697083 1446.73645 C 551.439758 1448.341187 550.25769 1450.025513 549.08783 1451.718994 C 548.385925 1452.739014 547.423645 1454.133179 546.892639 1454.694702 C 537.51355 1464.005127 536.034485 1473.694092 536.445435 1480.183472 C 537.059875 1489.89624 542.146118 1498.490723 551.492615 1505.681641 C 559.84021 1512.147583 569.78894 1515.422363 581.066223 1515.422363 C 585.318298 1515.422363 589.678284 1514.982666 594.760437 1514.037598 C 630.907532 1507.356567 663.378235 1493.503418 696.22937 1478.677002 C 741.680237 1458.142578 782.832153 1440.373535 826.252563 1430.8479 C 846.744141 1426.319092 868.057617 1424.026611 889.594849 1424.026611 C 891.421875 1424.026611 893.244751 1424.040527 895.067627 1424.073364 L 895.905884 1424.073364 C 897.730835 1424.040527 899.555786 1424.026611 901.382813 1424.026611 C 922.928223 1424.026611 944.219238 1426.319092 964.710815 1430.852539 C 1008.143433 1440.373535 1049.299438 1458.142578 1094.756348 1478.681763 C 1127.609619 1493.507935 1160.088379 1507.370605 1196.141846 1514.032715 C 1201.248535 1514.982666 1205.608398 1515.422363 1209.862549 1515.422363 C 1221.115479 1515.422363 1231.062134 1512.161621 1239.409668 1505.737793 C 1248.8396 1498.486084 1253.923828 1489.882202 1254.52002 1480.150635 C 1254.920776 1473.647705 1253.415283 1463.939453 1243.906006 1454.572876 C 1243.507202 1454.137695 1242.546875 1452.743652 1241.843018 1451.723877 C 1240.673096 1450.030029 1239.491089 1448.341187 1238.166626 1446.661377 C 1220.938477 1424.934204 1211.760742 1400.165894 1210.112793 1370.910645 C 1207.240112 1320.976318 1213.492188 1277.30896 1229.218872 1237.510742 L 1237.841064 1238.273193 C 1260.090454 1240.22876 1283.094604 1242.254639 1305.468018 1245.012695 C 1324.2323 1247.295898 1344.37793 1249.410645 1364.570435 1249.410645 C 1364.57251 1249.410645 1364.57251 1249.410645 1364.574463 1249.410645 C 1380.199463 1249.410645 1394.477661 1248.182495 1408.265503 1245.646729 C 1430.950195 1241.436035 1449.657471 1229.149902 1460.940918 1211.048706 C 1471.929199 1193.426758 1474.696167 1171.973145 1468.729004 1150.596924 C 1466.116699 1141.314453 1462.885864 1131.676758 1459.091553 1121.872803 C 1463.734253 1118.527588 1466.942627 1114.623291 1469.162354 1111.921509 L 1469.62207 1111.362305 C 1485.171875 1092.362793 1482.465942 1075.805176 1479.469116 1067.626953 C 1478.887207 1066.036255 1478.091797 1064.209229 1477.007324 1062.267822 C 1495.57019 1052.140869 1503.071411 1032.806763 1496.257813 1010.829224 C 1494.176514 1003.89563 1491.60498 997.616943 1488.53894 992.02124 C 1504.890259 989.883179 1527.263672 986.940308 1544.888672 968.511475 C 1566.474731 945.855469 1561.901123 923.765625 1554.255493 909.215332 Z"></path>
            <path id="path2" fill="#e5e2de" stroke="none" d="M 1533.055908 920.366943 C 1513.172729 882.567139 1492.860229 844.958862 1472.690186 807.350464 C 1466.366943 795.565063 1459.803589 783.923096 1453.669556 772.089966 C 1444.329102 754.02832 1442.843994 735.391846 1447.441895 715.41394 C 1450.412354 702.287109 1451.515015 688.297852 1450.892456 674.883545 C 1449.167236 638.568726 1439.393433 603.835083 1426.602539 570.011475 C 1426.602539 570.011475 1451.466187 474.290039 1402.359375 398.833984 C 1392.347534 383.455566 1379.316528 368.939087 1362.308105 356.195679 C 1362.214478 356.147705 1362.116821 356.051636 1362.02124 355.956055 C 1350.28418 347.236694 1336.677368 339.331787 1320.962891 332.672363 C 1313.203247 329.175171 1304.723389 325.773438 1295.619019 322.611694 C 1295.476563 322.563721 1295.2854 322.515625 1295.140869 322.46814 C 1283.54834 318.204224 1274.588379 315.569214 1267.784912 314.275513 C 1234.05896 305.604126 1192.616089 299.903076 1141.928467 299.903076 C 930.893311 299.903076 895.486816 456.372314 895.486816 456.372314 C 895.486816 456.372314 860.035522 299.903076 648.998352 299.903076 C 598.310669 299.903076 556.869812 305.604126 523.141785 314.275513 C 516.387268 315.569214 507.380493 318.204224 495.785828 322.46814 C 495.643433 322.515625 495.498962 322.563721 495.354553 322.611694 C 486.205383 325.773438 477.772339 329.175171 470.010681 332.672363 C 454.24939 339.331787 440.691467 347.236694 428.954407 355.956055 C 428.809937 356.051636 428.714294 356.147705 428.618713 356.195679 C 411.659058 368.939087 398.579224 383.455566 388.567444 398.833984 C 339.509399 474.290039 364.326294 570.011475 364.326294 570.011475 C 351.533325 603.835083 341.808411 638.568726 340.036316 674.883545 C 339.413757 688.297852 340.514465 702.287109 343.53363 715.41394 C 348.084839 735.391846 346.59967 754.02832 337.30603 772.089966 C 331.125183 783.923096 324.56189 795.565063 318.285461 807.350464 C 298.068542 844.958862 277.754028 882.567139 257.872864 920.366943 C 251.405151 932.679565 253.704163 941.829956 263.382263 951.98645 C 274.974915 964.059448 290.211304 966.263184 305.590149 968.275513 C 332.179077 971.724731 337.592896 979.48584 324.034973 1002.482178 C 321.255798 1007.177246 319.243713 1012.447144 317.614075 1017.717285 C 313.54303 1030.844116 317.614075 1039.228149 330.693909 1043.491943 C 345.01886 1048.187012 359.630676 1052.067627 374.100037 1056.283691 C 376.014526 1056.858398 377.835388 1057.576782 379.80072 1059.637207 C 370.458313 1061.122437 361.018188 1062.415649 351.724548 1064.092529 C 332.514771 1067.637939 327.532288 1081.148071 339.891907 1096.191406 C 341.903992 1098.634644 344.01178 1101.317383 346.646423 1102.946533 C 357.667358 1109.653809 358.814819 1118.708374 354.456909 1129.918945 C 350.959595 1138.781982 347.844788 1147.884766 345.258911 1157.083252 C 336.490173 1188.654907 355.03064 1216.154541 387.033386 1222.094971 C 419.131775 1227.987793 450.752075 1225.113281 482.612427 1221.232666 C 509.441467 1217.927124 536.364075 1215.723145 563.241882 1213.327637 C 573.255737 1212.41748 579.483337 1217.543579 583.218689 1226.789917 C 602.094849 1273.59668 607.606323 1322.31958 604.731567 1372.28833 C 602.861877 1405.441406 592.32312 1435.384155 571.530457 1461.541992 C 568.895813 1464.895752 566.788025 1468.776245 563.76886 1471.698486 C 557.349976 1478.070313 560.989685 1482.765503 566.163452 1486.741943 C 573.398132 1492.34729 581.926819 1492.05957 590.406616 1490.47876 C 624.134644 1484.250977 655.370422 1470.836182 686.366089 1456.846924 C 730.059143 1437.108643 773.943359 1417.801514 821.086914 1407.453125 C 846.046265 1401.943848 870.814331 1399.692139 895.486816 1400.123169 C 920.161255 1399.692139 944.929321 1401.943848 969.841797 1407.453125 C 1017.032227 1417.801514 1060.916504 1437.108643 1104.609497 1456.846924 C 1135.605225 1470.836182 1166.794189 1484.250977 1200.522217 1490.47876 C 1209 1492.05957 1217.528564 1492.34729 1224.812134 1486.741943 C 1229.98584 1482.765503 1233.62561 1478.070313 1227.157959 1471.698486 C 1224.140747 1468.776245 1222.032959 1464.895752 1219.398315 1461.541992 C 1198.652466 1435.384155 1188.064941 1405.441406 1186.197266 1372.28833 C 1183.32251 1322.31958 1188.831909 1273.59668 1207.708008 1226.789917 C 1211.445435 1217.543579 1217.673096 1212.41748 1227.684814 1213.327637 C 1254.562744 1215.723145 1281.53418 1217.927124 1308.365234 1221.232666 C 1340.223511 1225.113281 1371.84375 1227.987793 1403.893311 1222.094971 C 1435.896118 1216.154541 1454.485352 1188.654907 1445.669922 1157.083252 C 1443.082031 1147.884766 1439.969238 1138.781982 1436.520752 1129.918945 C 1432.111938 1118.708374 1433.308228 1109.653809 1444.329102 1102.946533 C 1446.963867 1101.317383 1449.071533 1098.634644 1451.08374 1096.191406 C 1463.396484 1081.148071 1458.414063 1067.637939 1439.202148 1064.092529 C 1429.908569 1062.415649 1420.517334 1061.122437 1411.128052 1059.637207 C 1413.091309 1057.576782 1414.912231 1056.858398 1416.828735 1056.283691 C 1431.298096 1052.067627 1445.909912 1048.187012 1460.234863 1043.491943 C 1473.312744 1039.228149 1477.385742 1030.844116 1473.312744 1017.717285 C 1471.731934 1012.447144 1469.672974 1007.177246 1466.940674 1002.482178 C 1453.335938 979.48584 1458.749756 971.724731 1485.385498 968.275513 C 1500.764282 966.263184 1515.998657 964.059448 1527.546509 951.98645 C 1537.222656 941.829956 1539.523682 932.679565 1533.055908 920.366943 Z M 687.708862 438.885864 C 786.449463 473.044678 852.082642 566.849365 841.352661 661.277344 C 821.516235 648.916992 802.97583 638.233276 785.251221 626.304199 C 734.419067 591.953857 704.283997 543.278564 689.52771 484.54248 C 685.745544 469.643066 685.456665 454.360229 687.708862 438.885864 Z M 493.342407 418.52478 C 592.227478 431.603638 658.100708 492.639038 668.497009 566.993286 C 590.74231 576.383545 486.156555 487.752563 493.342407 418.52478 Z M 492.528625 816.405273 C 485.533997 813.865967 478.875061 810.22522 472.071655 807.06311 C 465.219421 803.853394 458.17804 801.122314 450.32074 800.403687 C 449.795837 804.955078 449.985046 809.266968 449.891479 813.578613 C 449.795837 817.842407 449.506958 822.058472 448.070618 826.274414 C 457.604309 828.142822 465.219421 823.064697 473.556824 822.489746 C 473.556824 822.489746 473.556824 822.489746 473.556824 822.537598 C 463.400574 835.04187 448.644348 842.659058 436.331482 842.659058 C 432.307251 842.659058 428.523071 841.844727 425.265808 840.119995 C 432.834167 827.663696 429.768188 814.680786 426.319702 801.841309 C 422.293396 786.98938 411.180969 781.384033 395.993347 780.952759 C 395.944519 780.952759 395.944519 780.952759 395.944519 780.904907 C 402.796753 771.658691 411.085327 768.640137 420.857056 768.06543 C 439.686401 766.963501 455.543335 774.293823 469.819458 785.408325 C 483.330627 795.900269 496.02594 807.542236 514.470764 810.752197 C 514.517517 810.752197 514.517517 810.752197 514.517517 810.799927 C 508.098694 821.004517 500.385864 819.279785 492.528625 816.405273 Z M 441.794128 731.463379 C 427.229126 731.463379 412.090393 734.769287 396.135803 742.865845 C 389.045532 732.517334 395.513245 728.349365 401.167114 724.900146 C 419.036194 713.976807 438.056763 710.671021 458.993835 714.791138 C 473.652466 717.665894 491.283508 725.427002 506.949158 735.391846 C 522.614868 745.308716 536.364075 757.477905 543.31189 769.215454 C 509.919556 751.393433 477.532288 731.463379 441.794128 731.463379 Z M 499.140747 605.943115 C 547.144897 584.623535 594.908997 586.540039 642.339417 603.786987 C 675.155945 615.76416 706.249329 631.43042 732.406921 656.917847 C 658.100708 691.74707 548.054321 681.973877 499.140747 605.943115 Z M 662.938782 732.99646 C 703.757019 702.43103 774.80603 689.974487 822.330078 705.161377 C 840.82373 711.054321 857.49646 720.013184 869.664795 735.82312 C 829.135498 781.575562 710.369202 779.851074 662.938782 732.99646 Z M 1297.633179 418.52478 C 1304.770264 487.752563 1200.235352 576.383545 1122.431763 566.993286 C 1132.874878 492.639038 1198.748047 431.603638 1297.633179 418.52478 Z M 1103.219971 438.885864 C 1105.470093 454.360229 1105.183228 469.643066 1101.447876 484.54248 C 1086.69165 543.278564 1056.50769 591.953857 1005.677612 626.304199 C 987.999756 638.233276 969.457275 648.916992 949.625 661.277344 C 938.844116 566.849365 1004.479248 473.044678 1103.219971 438.885864 Z M 921.310791 735.82312 C 933.432373 720.013184 950.151855 711.054321 968.59668 705.161377 C 1016.122803 689.974487 1087.218506 702.43103 1127.988037 732.99646 C 1080.55957 779.851074 961.793335 781.575562 921.310791 735.82312 Z M 1058.519775 656.917847 C 1084.726318 631.43042 1115.81958 615.76416 1148.589355 603.786987 C 1196.017822 586.540039 1243.783936 584.623535 1291.834839 605.943115 C 1242.921265 681.973877 1132.82605 691.74707 1058.519775 656.917847 Z M 1394.935425 780.952759 C 1379.747803 781.384033 1368.633301 786.98938 1364.609131 801.841309 C 1361.158569 814.680786 1358.092529 827.663696 1365.662964 840.119995 C 1362.405762 841.844727 1358.619507 842.659058 1354.595215 842.659058 C 1342.282471 842.659058 1327.528198 835.04187 1317.369873 822.537598 C 1317.369873 822.489746 1317.369873 822.489746 1317.369873 822.489746 C 1325.707275 823.064697 1333.324463 828.142822 1342.858154 826.274414 C 1341.4198 822.058472 1341.132935 817.842407 1341.037354 813.578613 C 1340.94165 809.266968 1341.132935 804.955078 1340.605957 800.403687 C 1332.748779 801.122314 1325.707275 803.853394 1318.855103 807.06311 C 1312.053711 810.22522 1305.392822 813.865967 1298.398193 816.405273 C 1290.540894 819.279785 1282.828125 821.004517 1276.40918 810.799927 C 1276.40918 810.752197 1276.40918 810.752197 1276.456055 810.752197 C 1294.900879 807.542236 1307.596191 795.900269 1321.1073 785.408325 C 1335.383423 774.293823 1351.242432 766.963501 1370.069702 768.06543 C 1379.843506 768.640137 1388.13208 771.658691 1394.982178 780.904907 C 1394.982178 780.952759 1394.982178 780.952759 1394.935425 780.952759 Z M 1394.791016 742.865845 C 1378.838379 734.769287 1363.697632 731.463379 1349.134644 731.463379 C 1313.394531 731.463379 1281.007202 751.393433 1247.616943 769.215454 C 1254.562744 757.477905 1268.31189 745.308716 1283.977539 735.391846 C 1299.645264 725.427002 1317.274292 717.665894 1331.934937 714.791138 C 1352.869995 710.671021 1371.890625 713.976807 1389.761719 724.900146 C 1395.413574 728.349365 1401.881226 732.517334 1394.791016 742.865845 Z"></path>
        </g>
    </g>
</svg>